<svg width="20" height="20" viewBox="0 0 20 20" fill="none" xmlns="http://www.w3.org/2000/svg">
<mask id="mask0_1649_656" style="mask-type:luminance" maskUnits="userSpaceOnUse" x="0" y="0" width="20" height="20">
<path d="M0 0H20V20H0V0Z" fill="white"/>
</mask>
<g mask="url(#mask0_1649_656)">
<mask id="mask1_1649_656" style="mask-type:luminance" maskUnits="userSpaceOnUse" x="0" y="0" width="20" height="20">
<path d="M0 0H20V20H0V0Z" fill="white"/>
</mask>
<g mask="url(#mask1_1649_656)">
<path d="M3.22773 1.88868C2.66945 1.89147 2.19343 2.09074 1.79965 2.4865C1.40587 2.88226 1.20898 3.35929 1.20898 3.91758C1.21009 4.40362 1.36576 4.83373 1.67597 5.2079C1.98619 5.58206 2.38 5.81472 2.85742 5.90586V14.0973C2.37928 14.1886 1.98505 14.4217 1.67473 14.7968C1.36441 15.1718 1.20916 15.6027 1.20898 16.0895C1.20942 16.6494 1.40768 17.1273 1.80379 17.5231C2.19989 17.9189 2.67792 18.1168 3.23789 18.1168C3.79754 18.1164 4.27524 17.9183 4.67098 17.5226C5.06671 17.1268 5.2648 16.6491 5.26523 16.0895C5.26515 15.603 5.11015 15.1723 4.80024 14.7973C4.49033 14.4223 4.0965 14.189 3.61875 14.0973V10.3824H9.61679V14.0973C9.13865 14.1886 8.74442 14.4217 8.4341 14.7968C8.12378 15.1718 7.96853 15.6027 7.96836 16.0895C7.96879 16.6499 8.16733 17.1281 8.56399 17.524C8.96065 17.9199 9.43919 18.1175 9.99961 18.1168C10.5593 18.1164 11.037 17.9183 11.4327 17.5226C11.8285 17.1268 12.0265 16.6491 12.027 16.0895C12.0268 15.6027 11.8715 15.1718 11.5612 14.7968C11.2509 14.4217 10.8567 14.1886 10.3785 14.0973V10.3824H17.1402V5.90586C17.6177 5.81472 18.0115 5.58206 18.3217 5.2079C18.6319 4.83373 18.7876 4.40362 18.7887 3.91758C18.7887 3.35762 18.5908 2.87959 18.195 2.48348C17.7992 2.08738 17.3213 1.88911 16.7613 1.88868L16.7574 1.88867L16.7535 1.88868C16.1951 1.89125 15.7189 2.09043 15.3249 2.48623C14.931 2.88202 14.734 3.35913 14.734 3.91758C14.7351 4.40362 14.8908 4.83373 15.201 5.2079C15.5112 5.58207 15.905 5.81472 16.3824 5.90586V9.62071H10.3785V5.90586C10.8559 5.81472 11.2498 5.58206 11.56 5.2079C11.8702 4.83373 12.0259 4.40362 12.027 3.91758C12.027 3.35762 11.8291 2.87959 11.4333 2.48348C11.0375 2.08738 10.5596 1.88911 9.99961 1.88868L9.9957 1.88867L9.99179 1.88868C9.4326 1.89018 8.95556 2.08891 8.56068 2.48486C8.1658 2.88081 7.96836 3.35838 7.96836 3.91758C7.96947 4.40362 8.12513 4.83373 8.43534 5.2079C8.74556 5.58206 9.13937 5.81472 9.61679 5.90586V9.62071H3.61875V5.90586C4.09578 5.81431 4.48919 5.58148 4.799 5.20736C5.1088 4.83324 5.26421 4.40332 5.26523 3.91758C5.26523 3.35762 5.06733 2.87959 4.67153 2.48348C4.27573 2.08738 3.79785 1.88911 3.23789 1.88868L3.23281 1.88867L3.22773 1.88868Z" fill="#F73431"/>
</g>
</g>
</svg>
