<svg width="35" height="35" viewBox="0 0 35 35" fill="none" xmlns="http://www.w3.org/2000/svg">
<path d="M15.593 3.55396C16.6083 2.69816 18.2474 2.69816 19.2338 3.55396L21.5256 5.51216C21.9607 5.87479 22.7875 6.1794 23.3677 6.1794H25.8336C27.3712 6.1794 28.6331 7.44135 28.6331 8.97889V11.4448C28.6331 12.025 28.9377 12.8373 29.3003 13.2724L31.2585 15.5642C32.1143 16.5796 32.1143 18.2187 31.2585 19.205L29.3003 21.4968C28.9377 21.932 28.6331 22.7443 28.6331 23.3245V25.7904C28.6331 27.3279 27.3712 28.5899 25.8336 28.5899H23.3677C22.7875 28.5899 21.9752 28.8945 21.5401 29.2571L19.2483 31.2153C18.2329 32.0711 16.5938 32.0711 15.6075 31.2153L13.3157 29.2571C12.8805 28.8945 12.0537 28.5899 11.488 28.5899H8.9496C7.41206 28.5899 6.15011 27.3279 6.15011 25.7904V23.31C6.15011 22.7443 5.86 21.9175 5.49737 21.4968L3.53918 19.1905C2.69788 18.1897 2.69788 16.5651 3.53918 15.5642L5.49737 13.2579C5.86 12.8228 6.15011 12.0105 6.15011 11.4448V8.9934C6.15011 7.45585 7.41206 6.1939 8.9496 6.1939H11.459C12.0392 6.1939 12.8515 5.88929 13.2866 5.52666L15.593 3.55396Z" fill="#9E00B6" stroke="#9E00B6" stroke-width="2.17577" stroke-linecap="round" stroke-linejoin="round"/>
<path d="M11.2422 17.4062L15.3471 21.5112L23.5716 13.3013" stroke="white" stroke-width="2.17577" stroke-linecap="round" stroke-linejoin="round"/>
</svg>
