<svg width="18" height="18" viewBox="0 0 18 18" fill="none" xmlns="http://www.w3.org/2000/svg">
<path d="M15.9375 8.9965H6.67125M3.4005 8.9965H2.0625M3.4005 8.9965C3.4005 8.56287 3.57276 8.147 3.87938 7.84038C4.186 7.53376 4.60187 7.3615 5.0355 7.3615C5.46913 7.3615 5.885 7.53376 6.19162 7.84038C6.49824 8.147 6.6705 8.56287 6.6705 8.9965C6.6705 9.43013 6.49824 9.846 6.19162 10.1526C5.885 10.4592 5.46913 10.6315 5.0355 10.6315C4.60187 10.6315 4.186 10.4592 3.87938 10.1526C3.57276 9.846 3.4005 9.43013 3.4005 8.9965ZM15.9375 13.9518H11.6265M11.6265 13.9518C11.6265 14.3855 11.4538 14.8018 11.1471 15.1085C10.8404 15.4152 10.4245 15.5875 9.99075 15.5875C9.55712 15.5875 9.14125 15.4145 8.83463 15.1079C8.52801 14.8012 8.35575 14.3854 8.35575 13.9518M11.6265 13.9518C11.6265 13.518 11.4538 13.1024 11.1471 12.7957C10.8404 12.489 10.4245 12.3167 9.99075 12.3167C9.55712 12.3167 9.14125 12.489 8.83463 12.7956C8.52801 13.1023 8.35575 13.5181 8.35575 13.9518M8.35575 13.9518H2.0625M15.9375 4.04125H13.6087M10.338 4.04125H2.0625M10.338 4.04125C10.338 3.60762 10.5103 3.19175 10.8169 2.88513C11.1235 2.57851 11.5394 2.40625 11.973 2.40625C12.1877 2.40625 12.4003 2.44854 12.5987 2.53071C12.7971 2.61287 12.9773 2.73331 13.1291 2.88513C13.2809 3.03695 13.4014 3.2172 13.4835 3.41556C13.5657 3.61393 13.608 3.82654 13.608 4.04125C13.608 4.25596 13.5657 4.46857 13.4835 4.66694C13.4014 4.8653 13.2809 5.04555 13.1291 5.19737C12.9773 5.34919 12.7971 5.46963 12.5987 5.55179C12.4003 5.63396 12.1877 5.67625 11.973 5.67625C11.5394 5.67625 11.1235 5.50399 10.8169 5.19737C10.5103 4.89075 10.338 4.47488 10.338 4.04125Z" stroke="#1877F2" stroke-miterlimit="10" stroke-linecap="round"/>
</svg>
