<svg width="16" height="19" viewBox="0 0 16 19" fill="none" xmlns="http://www.w3.org/2000/svg">
<g clip-path="url(#clip0_1649_637)">
<path d="M4.57143 0C5.20357 0 5.71429 0.510714 5.71429 1.14286V2.28571H10.2857V1.14286C10.2857 0.510714 10.7964 0 11.4286 0C12.0607 0 12.5714 0.510714 12.5714 1.14286V2.28571H14.2857C15.2321 2.28571 16 3.05357 16 4V5.71429H0V4C0 3.05357 0.767857 2.28571 1.71429 2.28571H3.42857V1.14286C3.42857 0.510714 3.93929 0 4.57143 0ZM0 6.85714H16V16.5714C16 17.5179 15.2321 18.2857 14.2857 18.2857H1.71429C0.767857 18.2857 0 17.5179 0 16.5714V6.85714ZM2.28571 9.71428V10.8571C2.28571 11.1714 2.54286 11.4286 2.85714 11.4286H4C4.31429 11.4286 4.57143 11.1714 4.57143 10.8571V9.71428C4.57143 9.4 4.31429 9.14286 4 9.14286H2.85714C2.54286 9.14286 2.28571 9.4 2.28571 9.71428ZM6.85714 9.71428V10.8571C6.85714 11.1714 7.11429 11.4286 7.42857 11.4286H8.57143C8.88571 11.4286 9.14286 11.1714 9.14286 10.8571V9.71428C9.14286 9.4 8.88571 9.14286 8.57143 9.14286H7.42857C7.11429 9.14286 6.85714 9.4 6.85714 9.71428ZM12 9.14286C11.6857 9.14286 11.4286 9.4 11.4286 9.71428V10.8571C11.4286 11.1714 11.6857 11.4286 12 11.4286H13.1429C13.4571 11.4286 13.7143 11.1714 13.7143 10.8571V9.71428C13.7143 9.4 13.4571 9.14286 13.1429 9.14286H12ZM2.28571 14.2857V15.4286C2.28571 15.7429 2.54286 16 2.85714 16H4C4.31429 16 4.57143 15.7429 4.57143 15.4286V14.2857C4.57143 13.9714 4.31429 13.7143 4 13.7143H2.85714C2.54286 13.7143 2.28571 13.9714 2.28571 14.2857ZM7.42857 13.7143C7.11429 13.7143 6.85714 13.9714 6.85714 14.2857V15.4286C6.85714 15.7429 7.11429 16 7.42857 16H8.57143C8.88571 16 9.14286 15.7429 9.14286 15.4286V14.2857C9.14286 13.9714 8.88571 13.7143 8.57143 13.7143H7.42857ZM11.4286 14.2857V15.4286C11.4286 15.7429 11.6857 16 12 16H13.1429C13.4571 16 13.7143 15.7429 13.7143 15.4286V14.2857C13.7143 13.9714 13.4571 13.7143 13.1429 13.7143H12C11.6857 13.7143 11.4286 13.9714 11.4286 14.2857Z" fill="#F73431"/>
</g>
<defs>
<clipPath id="clip0_1649_637">
<path d="M0 0H16V18.2857H0V0Z" fill="white"/>
</clipPath>
</defs>
</svg>
