<svg width="20" height="30" viewBox="0 0 20 30" fill="none" xmlns="http://www.w3.org/2000/svg">
<path d="M8.11694 0.0116177C8.07064 0.030138 7.91321 0.0671787 7.78357 0.0949612C7.60762 0.132002 7.35759 0.391291 6.96866 0.90987C6.35748 1.72478 5.31106 3.66945 5.2555 4.10468C5.23698 4.24359 5.13511 4.74365 5.02399 5.1974C4.82026 6.10492 4.64432 7.70695 4.64432 8.67929C4.64432 9.46642 4.90361 10.9573 5.48701 13.578C6.63529 18.7082 6.82976 19.9491 6.74641 21.9123C6.67233 23.7736 6.39452 24.9034 5.60739 26.4962C5.33884 27.0518 4.8573 27.8574 4.55171 28.2834C4.24612 28.7094 3.99609 29.0705 3.99609 29.0983C3.99609 29.1168 5.21846 29.1354 6.70937 29.1354C9.82084 29.1354 9.58933 29.2002 10.0338 28.2093C10.3116 27.5889 10.5154 27.3759 10.8117 27.3759C11.0988 27.3759 11.0895 27.4315 10.7561 27.9593C10.608 28.2001 10.395 28.5612 10.2931 28.7649L10.1079 29.1354H12.8675H15.6363L15.9882 28.3668C16.7105 26.7832 16.905 25.8665 16.8957 24.1348C16.8865 22.7735 16.6642 21.5604 16.1271 19.9584C15.7197 18.7267 15.3678 17.9304 13.5435 14.1429C11.7192 10.3461 11.0988 8.71633 10.8858 7.10503C10.8487 6.84574 10.7932 6.66054 10.7561 6.67906C10.608 6.77166 10.5709 6.39199 10.5709 4.82699C10.5709 2.7712 10.6913 2.27114 11.7563 0.122742C11.7748 0.085701 11.3488 0.0671787 10.8024 0.0764389C10.0246 0.0949612 9.7838 0.132002 9.72824 0.243126C9.37635 0.91913 8.76516 1.81738 8.6633 1.81738C8.58922 1.81738 8.53366 1.79886 8.53366 1.77108C8.53366 1.65996 8.94111 0.91913 9.20966 0.548717C9.36709 0.326469 9.46895 0.132002 9.45043 0.113482C9.39487 0.0671787 8.22807 -0.0346832 8.11694 0.0116177ZM8.24659 3.31756C8.24659 3.38238 8.1725 3.77131 8.0799 4.17877C7.95952 4.74365 7.87617 4.92885 7.75579 4.94737C7.59836 4.98442 7.5891 4.92885 7.64466 4.43806C7.74653 3.60463 7.88543 3.20643 8.08916 3.20643C8.18176 3.20643 8.25585 3.26199 8.24659 3.31756ZM7.92247 6.51237C7.95026 6.70684 7.97804 7.10503 7.97804 7.3921C7.97804 7.85512 7.95026 7.9292 7.80209 7.9292C7.56132 7.9292 7.51502 7.75326 7.51502 6.9013C7.51502 6.25308 7.53354 6.16974 7.69097 6.16974C7.82061 6.16974 7.87617 6.26234 7.92247 6.51237ZM8.45957 9.82757C8.55218 10.1332 8.62626 10.5221 8.62626 10.6888C8.62626 10.9573 8.59848 10.9944 8.42253 10.9666C8.26511 10.9481 8.19102 10.8184 8.05212 10.3369C7.95952 10.0035 7.88543 9.61458 7.88543 9.47568C7.88543 9.25343 7.92247 9.21639 8.08916 9.24417C8.24659 9.26269 8.32993 9.39233 8.45957 9.82757ZM9.37635 12.8835C9.70046 13.7076 9.71898 13.9762 9.44117 13.9299C9.28374 13.9114 9.18188 13.754 8.98741 13.2539C8.6633 12.4297 8.64478 12.1612 8.92259 12.2075C9.08002 12.226 9.18188 12.3834 9.37635 12.8835ZM10.219 15.356C10.3672 15.4856 10.7561 16.5413 10.7561 16.8469C10.7561 16.9765 10.7006 17.0136 10.5061 16.9858C10.2931 16.958 10.2376 16.8747 10.0431 16.3191C9.72824 15.3652 9.7838 15.0134 10.219 15.356ZM11.4599 18.986C11.747 19.9584 11.747 19.9862 11.3858 19.9491C11.0895 19.9213 11.0802 19.9028 11.0339 19.4398C11.0062 19.1712 10.9321 18.9027 10.8673 18.8379C10.8117 18.7823 10.7561 18.6064 10.7561 18.4582C10.7561 18.2267 10.7839 18.1989 10.9969 18.2267C11.2192 18.2545 11.2655 18.3286 11.4599 18.986ZM11.997 21.4122C12.0248 21.4956 12.0526 21.8845 12.0526 22.292V23.0235H11.784C11.5433 23.0235 11.5155 22.9958 11.4599 22.5976C11.4321 22.3568 11.4044 21.9586 11.4044 21.7178C11.4044 21.2826 11.4136 21.2641 11.6729 21.2641C11.8303 21.2641 11.96 21.3196 11.997 21.4122ZM11.9507 24.4311C11.9507 24.5515 11.8952 24.9312 11.8396 25.2923L11.7285 25.9405L11.3766 25.9683C11.1914 25.9868 11.0339 25.9776 11.0339 25.9591C11.0339 25.885 11.321 24.4589 11.3581 24.3385C11.3858 24.2829 11.5247 24.2274 11.6822 24.2274C11.9137 24.2274 11.96 24.2644 11.9507 24.4311Z" fill="#F73431"/>
<path d="M6.30127 0.632936C5.13447 2.03125 4.43995 3.35547 3.97693 5.02233L3.6806 6.12431V8.43939C3.67134 11.0323 3.70838 11.3286 4.45847 15.1994C4.69924 16.4681 4.95853 17.9127 5.02335 18.3942C5.19929 19.6629 5.17151 21.9595 4.97705 22.9503C4.8011 23.8949 4.29178 25.4043 3.88433 26.21C3.57874 26.8304 2.73605 28.1546 2.31933 28.6825C2.17117 28.8677 2.05078 29.0529 2.05078 29.0807C2.05078 29.1084 2.33785 29.1362 2.68974 29.1362H3.32871L3.93063 28.3213C5.31968 26.4507 6.00494 24.5431 6.20867 21.9687C6.3661 20.0889 6.17163 18.4683 5.37524 14.8753C4.02323 8.80981 3.93989 6.45768 5.01409 3.68884C5.3382 2.83689 6.08829 1.51267 6.64391 0.781101C6.86615 0.494032 7.05136 0.216221 7.05136 0.16066C7.05136 -0.0893688 6.73651 0.105097 6.30127 0.632936Z" fill="#F73431"/>
<path d="M11.7517 0.892208C11.0942 2.4572 11.0016 2.93874 11.0016 4.96676C10.9923 6.55027 11.0201 6.86513 11.196 7.51335C11.7609 9.55988 12.2147 10.6526 13.8815 13.9863C16.4652 19.1536 17.0856 20.8112 17.3449 23.2744C17.5116 24.9135 17.243 26.7193 16.5948 28.3121C16.4466 28.6917 16.317 29.0251 16.317 29.0621C16.317 29.1084 16.6041 29.1362 16.9652 29.1362H17.6134L17.9005 28.5158C18.4747 27.2564 18.5765 26.6915 18.5765 24.6913C18.5765 22.9596 18.5673 22.8392 18.2802 21.7928C17.8357 20.0981 17.1412 18.5239 15.3169 15.005C12.9462 10.4211 12.3258 9.03204 11.9183 7.3374C11.3442 4.96676 11.4553 2.81836 12.2795 0.799604C12.5758 0.0865593 12.5758 0.0587788 12.3165 0.0587788C12.1406 0.0587788 12.048 0.197683 11.7517 0.892208Z" fill="#F73431"/>
</svg>
